# xmcd
#
# Track frame offsets:
#	150
#	13950
#	28413
#	42694
#	58239
#	73537
#	86442
#	98755
#	113536
#	128741
#	140417
#	155016
#	170138
#	182874
#	195714
#	209698
#	221945
#	234264
#
# Disc length: 3282 seconds
# Revision: 0
# Processed by: cddbd v1.5.2PL0 Copyright (c) Steve Scherf et al.
# Submitted via: dBpowerAMP V12.0
#
DISCID=170cd012
DTITLE=Various Artist - The Songbirds And Crooners Of WW II Disc 2
DYEAR=2002
DGENRE=Easy Listening
TTITLE0=Eddy Howard - Miss You
TTITLE1=King Sisters - I'll Get By
TTITLE2=Andy Russell - Besame Mucho
TTITLE3=Marlene Dietrich - Lili Marlene
TTITLE4=Buddy Clark - Peg O' My Heart
TTITLE5=Helen O'Connell - I Thew A Kiss In The Ocean
TTITLE6=Ink Spots - Do I Worry
TTITLE7=Peggy Lee - Blues In The Night
TTITLE8=Snooky Lanson - Full Moon And Empty Arms
TTITLE9=Kate Smith - The Last Time I Saw Paris
TTITLE10=Kenny Sargent - I Cried For You
TTITLE11=Hildegarde - Darling,je Vous Aime Beaucoup
TTITLE12=Billy Eckstine - A Cottage For Sale
TTITLE13=Connie Haines - What Is This Thing Called Love
TTITLE14=Tommy Ryan - Love Walked In
TTITLE15=Ella Fitzgerald - A-Tisket, A Tasket
TTITLE16=Jack Leonard - Our Love
TTITLE17=Ginny Sims - (Lights Out) 'Til Reveille
EXTD=
EXTT0=
EXTT1=
EXTT2=
EXTT3=
EXTT4=
EXTT5=
EXTT6=
EXTT7=
EXTT8=
EXTT9=
EXTT10=
EXTT11=
EXTT12=
EXTT13=
EXTT14=
EXTT15=
EXTT16=
EXTT17=
PLAYORDER=
